<?xml version="1.0" standalone="no"?>
<!DOCTYPE svg PUBLIC "-//W3C//DTD SVG 20010904//EN"
 "http://www.w3.org/TR/2001/REC-SVG-20010904/DTD/svg10.dtd">
<svg version="1.0" xmlns="http://www.w3.org/2000/svg"
 width="700.000000pt" height="700.000000pt" viewBox="0 0 700.000000 700.000000"
 preserveAspectRatio="xMidYMid meet">
<metadata>
Created by potrace 1.14, written by Peter Selinger 2001-2017
</metadata>
<g transform="translate(0.000000,700.000000) scale(0.100000,-0.100000)"
fill="#000000" stroke="none">
<path d="M0 6277 l0 -722 1365 -1365 c847 -846 1364 -1371 1362 -1380 -3 -12
-423 -608 -447 -633 -4 -5 -517 377 -1139 847 -622 471 -1133 856 -1136 856
-3 0 -5 -873 -5 -1940 l0 -1940 3500 0 3500 0 0 1944 0 1945 -1137 -860 c-625
-473 -1140 -856 -1144 -852 -23 26 -443 621 -446 633 -2 9 515 534 1362 1380
l1365 1365 0 722 0 723 -3500 0 -3500 0 0 -723z m3630 -317 c69 -137 127 -250
130 -250 21 -1 543 -80 546 -83 2 -2 -86 -93 -196 -203 l-200 -199 45 -260
c25 -143 44 -268 43 -277 -2 -13 -53 10 -250 114 l-248 130 -247 -131 c-199
-104 -249 -127 -251 -113 -1 9 18 134 43 277 l45 260 -200 199 c-110 110 -198
201 -196 203 2 2 535 83 549 83 1 0 58 113 127 250 69 138 127 250 130 250 3
0 61 -112 130 -250z"/>
</g>
</svg>
